<mxfile host="app.diagrams.net" modified="2023-05-19T20:57:41.391Z" agent="Mozilla/5.0 (Windows NT 10.0; Win64; x64) AppleWebKit/537.36 (KHTML, like Gecko) Chrome/113.0.0.0 Safari/537.36" etag="eojXwJPuT0NtXeTqXaM9" version="21.3.2" type="github">
  <diagram name="PÃ¡gina-1" id="2pcdkN29OkQ3OltXYX6B">
    <mxGraphModel dx="1781" dy="616" grid="1" gridSize="10" guides="1" tooltips="1" connect="1" arrows="1" fold="1" page="1" pageScale="1" pageWidth="827" pageHeight="1169" math="0" shadow="0">
      <root>
        <mxCell id="0" />
        <mxCell id="1" parent="0" />
        <mxCell id="e2rtTpoTJisuI_kt0HKg-9" value="" style="rhombus;whiteSpace=wrap;html=1;fillColor=#fff2cc;gradientColor=#ffd966;strokeColor=#d6b656;" parent="1" vertex="1">
          <mxGeometry x="406" y="187" width="70" height="60" as="geometry" />
        </mxCell>
        <mxCell id="e2rtTpoTJisuI_kt0HKg-10" value="&lt;font style=&quot;vertical-align: inherit;&quot;&gt;&lt;font style=&quot;vertical-align: inherit;&quot;&gt;Matricula&lt;/font&gt;&lt;/font&gt;" style="text;html=1;align=center;verticalAlign=middle;whiteSpace=wrap;rounded=0;" parent="1" vertex="1">
          <mxGeometry x="411" y="203" width="60" height="30" as="geometry" />
        </mxCell>
        <mxCell id="e2rtTpoTJisuI_kt0HKg-11" value="" style="rhombus;whiteSpace=wrap;html=1;fillColor=#fff2cc;gradientColor=#ffd966;strokeColor=#d6b656;" parent="1" vertex="1">
          <mxGeometry x="130" y="190" width="70" height="60" as="geometry" />
        </mxCell>
        <mxCell id="e2rtTpoTJisuI_kt0HKg-16" style="edgeStyle=orthogonalEdgeStyle;rounded=0;orthogonalLoop=1;jettySize=auto;html=1;" parent="1" edge="1">
          <mxGeometry relative="1" as="geometry">
            <mxPoint x="200" y="220" as="sourcePoint" />
            <mxPoint x="230" y="220" as="targetPoint" />
          </mxGeometry>
        </mxCell>
        <mxCell id="e2rtTpoTJisuI_kt0HKg-12" value="&lt;font style=&quot;vertical-align: inherit;&quot;&gt;&lt;font style=&quot;vertical-align: inherit;&quot;&gt;Dictamina&lt;/font&gt;&lt;/font&gt;" style="text;html=1;strokeColor=none;fillColor=none;align=center;verticalAlign=middle;whiteSpace=wrap;rounded=0;" parent="1" vertex="1">
          <mxGeometry x="135" y="205" width="60" height="30" as="geometry" />
        </mxCell>
        <mxCell id="e2rtTpoTJisuI_kt0HKg-15" value="" style="endArrow=none;html=1;rounded=0;exitX=1;exitY=0.125;exitDx=0;exitDy=0;exitPerimeter=0;" parent="1" source="e2rtTpoTJisuI_kt0HKg-47" edge="1">
          <mxGeometry width="50" height="50" relative="1" as="geometry">
            <mxPoint x="100" y="220" as="sourcePoint" />
            <mxPoint x="130" y="220" as="targetPoint" />
            <Array as="points" />
          </mxGeometry>
        </mxCell>
        <mxCell id="e2rtTpoTJisuI_kt0HKg-19" value="" style="endArrow=classic;html=1;rounded=0;entryX=1;entryY=0.5;entryDx=0;entryDy=0;" parent="1" source="e2rtTpoTJisuI_kt0HKg-51" edge="1">
          <mxGeometry width="50" height="50" relative="1" as="geometry">
            <mxPoint x="360" y="320" as="sourcePoint" />
            <mxPoint x="350" y="220" as="targetPoint" />
          </mxGeometry>
        </mxCell>
        <mxCell id="e2rtTpoTJisuI_kt0HKg-21" value="&lt;font size=&quot;1&quot; style=&quot;&quot;&gt;&lt;b style=&quot;font-size: 20px;&quot;&gt;2)&lt;/b&gt;&lt;/font&gt;" style="text;html=1;strokeColor=none;fillColor=none;align=center;verticalAlign=middle;whiteSpace=wrap;rounded=0;" parent="1" vertex="1">
          <mxGeometry x="10" y="160" width="20" height="30" as="geometry" />
        </mxCell>
        <mxCell id="e2rtTpoTJisuI_kt0HKg-26" style="edgeStyle=orthogonalEdgeStyle;rounded=0;orthogonalLoop=1;jettySize=auto;html=1;exitX=1;exitY=0.5;exitDx=0;exitDy=0;entryX=0;entryY=0.5;entryDx=0;entryDy=0;" parent="1" target="e2rtTpoTJisuI_kt0HKg-24" edge="1">
          <mxGeometry relative="1" as="geometry">
            <mxPoint x="480" y="335" as="sourcePoint" />
            <Array as="points">
              <mxPoint x="660" y="335" />
            </Array>
          </mxGeometry>
        </mxCell>
        <mxCell id="e2rtTpoTJisuI_kt0HKg-24" value="Repite" style="rhombus;whiteSpace=wrap;html=1;fillColor=#fff2cc;gradientColor=#ffd966;strokeColor=#d6b656;" parent="1" vertex="1">
          <mxGeometry x="668" y="305" width="70" height="60" as="geometry" />
        </mxCell>
        <mxCell id="e2rtTpoTJisuI_kt0HKg-31" value="&lt;div style=&quot;text-align: left;&quot;&gt;&lt;br&gt;&lt;/div&gt;" style="text;html=1;strokeColor=none;fillColor=none;align=center;verticalAlign=middle;whiteSpace=wrap;rounded=0;" parent="1" vertex="1">
          <mxGeometry x="505" y="250" width="110" height="60" as="geometry" />
        </mxCell>
        <mxCell id="e2rtTpoTJisuI_kt0HKg-33" value="" style="endArrow=classic;html=1;rounded=0;entryX=0.5;entryY=1;entryDx=0;entryDy=0;exitX=0.51;exitY=0.063;exitDx=0;exitDy=0;exitPerimeter=0;" parent="1" source="e2rtTpoTJisuI_kt0HKg-55" target="e2rtTpoTJisuI_kt0HKg-9" edge="1">
          <mxGeometry width="50" height="50" relative="1" as="geometry">
            <mxPoint x="440" y="320" as="sourcePoint" />
            <mxPoint x="360" y="260" as="targetPoint" />
          </mxGeometry>
        </mxCell>
        <mxCell id="e2rtTpoTJisuI_kt0HKg-34" value="" style="endArrow=none;html=1;rounded=0;entryX=-0.023;entryY=0.7;entryDx=0;entryDy=0;entryPerimeter=0;" parent="1" target="e2rtTpoTJisuI_kt0HKg-53" edge="1">
          <mxGeometry width="50" height="50" relative="1" as="geometry">
            <mxPoint x="60" y="250" as="sourcePoint" />
            <mxPoint x="250" y="295" as="targetPoint" />
            <Array as="points">
              <mxPoint x="60" y="250" />
              <mxPoint x="80" y="250" />
              <mxPoint x="110" y="250" />
              <mxPoint x="110" y="280" />
            </Array>
          </mxGeometry>
        </mxCell>
        <mxCell id="e2rtTpoTJisuI_kt0HKg-47" value="PROFESOR" style="swimlane;fontStyle=0;childLayout=stackLayout;horizontal=1;startSize=30;horizontalStack=0;resizeParent=1;resizeParentMax=0;resizeLast=0;collapsible=1;marginBottom=0;whiteSpace=wrap;html=1;fillColor=#dae8fc;gradientColor=#7ea6e0;strokeColor=#6c8ebf;" parent="1" vertex="1">
          <mxGeometry x="-10" y="205" width="100" height="120" as="geometry" />
        </mxCell>
        <mxCell id="e2rtTpoTJisuI_kt0HKg-48" value="-Id_P (PK)&lt;br style=&quot;border-color: var(--border-color);&quot;&gt;-NIF_P&lt;br style=&quot;border-color: var(--border-color);&quot;&gt;-Nombre&lt;br style=&quot;border-color: var(--border-color);&quot;&gt;-Telefono&lt;br style=&quot;border-color: var(--border-color);&quot;&gt;-Especialidad" style="text;strokeColor=none;fillColor=none;align=left;verticalAlign=middle;spacingLeft=4;spacingRight=4;overflow=hidden;points=[[0,0.5],[1,0.5]];portConstraint=eastwest;rotatable=0;whiteSpace=wrap;html=1;" parent="e2rtTpoTJisuI_kt0HKg-47" vertex="1">
          <mxGeometry y="30" width="100" height="90" as="geometry" />
        </mxCell>
        <mxCell id="e2rtTpoTJisuI_kt0HKg-55" value="CURSO" style="swimlane;fontStyle=0;childLayout=stackLayout;horizontal=1;startSize=30;horizontalStack=0;resizeParent=1;resizeParentMax=0;resizeLast=0;collapsible=1;marginBottom=0;whiteSpace=wrap;html=1;fillColor=#dae8fc;gradientColor=#7ea6e0;strokeColor=#6c8ebf;" parent="1" vertex="1">
          <mxGeometry x="390" y="325" width="100" height="80" as="geometry" />
        </mxCell>
        <mxCell id="e2rtTpoTJisuI_kt0HKg-56" value="&lt;div style=&quot;border-color: var(--border-color);&quot;&gt;-Id_alumno(FK)&lt;/div&gt;&lt;div style=&quot;border-color: var(--border-color);&quot;&gt;&lt;span style=&quot;border-color: var(--border-color); background-color: initial;&quot;&gt;-Id_asig(FK)&lt;/span&gt;&lt;/div&gt;&lt;div style=&quot;border-color: var(--border-color);&quot;&gt;&lt;span style=&quot;border-color: var(--border-color); background-color: initial;&quot;&gt;-Cant-alumnos&lt;/span&gt;&lt;/div&gt;" style="text;strokeColor=none;fillColor=none;align=left;verticalAlign=middle;spacingLeft=4;spacingRight=4;overflow=hidden;points=[[0,0.5],[1,0.5]];portConstraint=eastwest;rotatable=0;whiteSpace=wrap;html=1;" parent="e2rtTpoTJisuI_kt0HKg-55" vertex="1">
          <mxGeometry y="30" width="100" height="50" as="geometry" />
        </mxCell>
        <mxCell id="e2rtTpoTJisuI_kt0HKg-60" value="" style="endArrow=none;html=1;rounded=0;entryX=0;entryY=0.5;entryDx=0;entryDy=0;" parent="1" target="e2rtTpoTJisuI_kt0HKg-56" edge="1">
          <mxGeometry width="50" height="50" relative="1" as="geometry">
            <mxPoint x="330" y="250" as="sourcePoint" />
            <mxPoint x="360" y="430" as="targetPoint" />
            <Array as="points">
              <mxPoint x="350" y="250" />
              <mxPoint x="350" y="380" />
            </Array>
          </mxGeometry>
        </mxCell>
        <mxCell id="e2rtTpoTJisuI_kt0HKg-61" value="" style="endArrow=classic;html=1;rounded=0;entryX=0.989;entryY=0.174;entryDx=0;entryDy=0;entryPerimeter=0;" parent="1" source="e2rtTpoTJisuI_kt0HKg-9" target="e2rtTpoTJisuI_kt0HKg-51" edge="1">
          <mxGeometry width="50" height="50" relative="1" as="geometry">
            <mxPoint x="400" y="220" as="sourcePoint" />
            <mxPoint x="350" y="220" as="targetPoint" />
          </mxGeometry>
        </mxCell>
        <mxCell id="e2rtTpoTJisuI_kt0HKg-51" value="ASIGNATURA" style="swimlane;fontStyle=0;childLayout=stackLayout;horizontal=1;startSize=30;horizontalStack=0;resizeParent=1;resizeParentMax=0;resizeLast=0;collapsible=1;marginBottom=0;whiteSpace=wrap;html=1;fillColor=#dae8fc;gradientColor=#7ea6e0;strokeColor=#6c8ebf;" parent="1" vertex="1">
          <mxGeometry x="230" y="200" width="140" height="100" as="geometry" />
        </mxCell>
        <mxCell id="e2rtTpoTJisuI_kt0HKg-53" value="-Cod_asig (PK)&lt;br&gt;-Nombre&lt;br&gt;-Cod_profesor" style="text;align=left;verticalAlign=middle;spacingLeft=4;spacingRight=4;overflow=hidden;points=[[0,0.5],[1,0.5]];portConstraint=eastwest;rotatable=0;whiteSpace=wrap;html=1;" parent="e2rtTpoTJisuI_kt0HKg-51" vertex="1">
          <mxGeometry y="30" width="140" height="70" as="geometry" />
        </mxCell>
        <mxCell id="e2rtTpoTJisuI_kt0HKg-64" value="ALUMNO" style="swimlane;fontStyle=0;childLayout=stackLayout;horizontal=1;startSize=30;horizontalStack=0;resizeParent=1;resizeParentMax=0;resizeLast=0;collapsible=1;marginBottom=0;whiteSpace=wrap;html=1;fillColor=#dae8fc;gradientColor=#7ea6e0;strokeColor=#6c8ebf;" parent="1" vertex="1">
          <mxGeometry x="520" y="203" width="140" height="90" as="geometry" />
        </mxCell>
        <mxCell id="e2rtTpoTJisuI_kt0HKg-65" value="&lt;div style=&quot;border-color: var(--border-color);&quot;&gt;-Num_matr(pk)&lt;/div&gt;&lt;div style=&quot;border-color: var(--border-color);&quot;&gt;&lt;span style=&quot;border-color: var(--border-color); background-color: initial;&quot;&gt;-Nombre&lt;/span&gt;&lt;/div&gt;&lt;div style=&quot;border-color: var(--border-color);&quot;&gt;&lt;span style=&quot;border-color: var(--border-color); background-color: initial;&quot;&gt;-Fecha_nacimiento&lt;/span&gt;&lt;/div&gt;&lt;div style=&quot;border-color: var(--border-color);&quot;&gt;&lt;span style=&quot;border-color: var(--border-color); background-color: initial;&quot;&gt;-Telefono&lt;/span&gt;&lt;/div&gt;" style="text;strokeColor=none;fillColor=none;align=left;verticalAlign=middle;spacingLeft=4;spacingRight=4;overflow=hidden;points=[[0,0.5],[1,0.5]];portConstraint=eastwest;rotatable=0;whiteSpace=wrap;html=1;" parent="e2rtTpoTJisuI_kt0HKg-64" vertex="1">
          <mxGeometry y="30" width="140" height="60" as="geometry" />
        </mxCell>
        <mxCell id="e2rtTpoTJisuI_kt0HKg-68" value="" style="endArrow=classic;html=1;rounded=0;entryX=1;entryY=0.5;entryDx=0;entryDy=0;" parent="1" target="e2rtTpoTJisuI_kt0HKg-9" edge="1">
          <mxGeometry width="50" height="50" relative="1" as="geometry">
            <mxPoint x="520" y="217" as="sourcePoint" />
            <mxPoint x="360" y="150" as="targetPoint" />
          </mxGeometry>
        </mxCell>
        <mxCell id="e2rtTpoTJisuI_kt0HKg-69" value="" style="endArrow=classic;html=1;rounded=0;entryX=1.003;entryY=0.169;entryDx=0;entryDy=0;entryPerimeter=0;exitX=0.5;exitY=0;exitDx=0;exitDy=0;" parent="1" source="e2rtTpoTJisuI_kt0HKg-24" target="e2rtTpoTJisuI_kt0HKg-64" edge="1">
          <mxGeometry width="50" height="50" relative="1" as="geometry">
            <mxPoint x="350" y="280" as="sourcePoint" />
            <mxPoint x="400" y="230" as="targetPoint" />
            <Array as="points">
              <mxPoint x="703" y="218" />
            </Array>
          </mxGeometry>
        </mxCell>
        <mxCell id="e2rtTpoTJisuI_kt0HKg-72" value="" style="endArrow=none;html=1;rounded=0;exitX=1.008;exitY=0.24;exitDx=0;exitDy=0;exitPerimeter=0;entryX=0.003;entryY=0.167;entryDx=0;entryDy=0;entryPerimeter=0;" parent="1" source="e2rtTpoTJisuI_kt0HKg-56" target="e2rtTpoTJisuI_kt0HKg-65" edge="1">
          <mxGeometry width="50" height="50" relative="1" as="geometry">
            <mxPoint x="350" y="280" as="sourcePoint" />
            <mxPoint x="520" y="240" as="targetPoint" />
            <Array as="points">
              <mxPoint x="510" y="367" />
              <mxPoint x="510" y="243" />
            </Array>
          </mxGeometry>
        </mxCell>
        <mxCell id="e2rtTpoTJisuI_kt0HKg-73" value="&lt;b&gt;&lt;font style=&quot;font-size: 20px;&quot;&gt;3)&lt;/font&gt;&lt;/b&gt;" style="text;html=1;strokeColor=none;fillColor=none;align=center;verticalAlign=middle;whiteSpace=wrap;rounded=0;" parent="1" vertex="1">
          <mxGeometry y="460" width="30" height="30" as="geometry" />
        </mxCell>
        <mxCell id="e2rtTpoTJisuI_kt0HKg-78" value="EMPLEADO" style="swimlane;fontStyle=0;childLayout=stackLayout;horizontal=1;startSize=30;horizontalStack=0;resizeParent=1;resizeParentMax=0;resizeLast=0;collapsible=1;marginBottom=0;whiteSpace=wrap;html=1;fillColor=#dae8fc;gradientColor=#7ea6e0;strokeColor=#6c8ebf;" parent="1" vertex="1">
          <mxGeometry x="20" y="500" width="110" height="160" as="geometry" />
        </mxCell>
        <mxCell id="e2rtTpoTJisuI_kt0HKg-81" value="-Id_E&amp;nbsp; (PK)&lt;br&gt;-DNI_E&amp;nbsp; &amp;nbsp; (PK)&lt;br&gt;-Nombre&lt;br&gt;-Telefono&lt;br&gt;-Salario&lt;br&gt;-Nom_Loc&amp;nbsp; (FK)" style="text;strokeColor=none;fillColor=none;align=left;verticalAlign=middle;spacingLeft=4;spacingRight=4;overflow=hidden;points=[[0,0.5],[1,0.5]];portConstraint=eastwest;rotatable=0;whiteSpace=wrap;html=1;" parent="e2rtTpoTJisuI_kt0HKg-78" vertex="1">
          <mxGeometry y="30" width="110" height="130" as="geometry" />
        </mxCell>
        <mxCell id="e2rtTpoTJisuI_kt0HKg-82" value="LOCALIDAD" style="swimlane;fontStyle=0;childLayout=stackLayout;horizontal=1;startSize=30;horizontalStack=0;resizeParent=1;resizeParentMax=0;resizeLast=0;collapsible=1;marginBottom=0;whiteSpace=wrap;html=1;fillColor=#dae8fc;gradientColor=#7ea6e0;strokeColor=#6c8ebf;" parent="1" vertex="1">
          <mxGeometry x="350" y="500" width="110" height="80" as="geometry" />
        </mxCell>
        <mxCell id="e2rtTpoTJisuI_kt0HKg-85" value="-Cod_Loc&amp;nbsp; (PK)&lt;br&gt;-Nombre&lt;br&gt;-Cod_Prov (FK)" style="text;strokeColor=none;fillColor=none;align=left;verticalAlign=middle;spacingLeft=4;spacingRight=4;overflow=hidden;points=[[0,0.5],[1,0.5]];portConstraint=eastwest;rotatable=0;whiteSpace=wrap;html=1;" parent="e2rtTpoTJisuI_kt0HKg-82" vertex="1">
          <mxGeometry y="30" width="110" height="50" as="geometry" />
        </mxCell>
        <mxCell id="e2rtTpoTJisuI_kt0HKg-86" value="PROVINCIA" style="swimlane;fontStyle=0;childLayout=stackLayout;horizontal=1;startSize=30;horizontalStack=0;resizeParent=1;resizeParentMax=0;resizeLast=0;collapsible=1;marginBottom=0;whiteSpace=wrap;html=1;fillColor=#dae8fc;gradientColor=#7ea6e0;strokeColor=#6c8ebf;" parent="1" vertex="1">
          <mxGeometry x="719" y="500" width="140" height="100" as="geometry" />
        </mxCell>
        <mxCell id="e2rtTpoTJisuI_kt0HKg-89" value="-Cod_Prov&amp;nbsp; (PK)&lt;br&gt;-Nom_Prov&amp;nbsp;&lt;br&gt;-Cod-Reg (FK)" style="text;strokeColor=none;fillColor=none;align=left;verticalAlign=middle;spacingLeft=4;spacingRight=4;overflow=hidden;points=[[0,0.5],[1,0.5]];portConstraint=eastwest;rotatable=0;whiteSpace=wrap;html=1;" parent="e2rtTpoTJisuI_kt0HKg-86" vertex="1">
          <mxGeometry y="30" width="140" height="70" as="geometry" />
        </mxCell>
        <mxCell id="e2rtTpoTJisuI_kt0HKg-90" value="REGION" style="swimlane;fontStyle=0;childLayout=stackLayout;horizontal=1;startSize=30;horizontalStack=0;resizeParent=1;resizeParentMax=0;resizeLast=0;collapsible=1;marginBottom=0;whiteSpace=wrap;html=1;fillColor=#dae8fc;gradientColor=#7ea6e0;strokeColor=#6c8ebf;" parent="1" vertex="1">
          <mxGeometry x="1101" y="500" width="140" height="80" as="geometry" />
        </mxCell>
        <mxCell id="e2rtTpoTJisuI_kt0HKg-92" value="-Cod_Reg (PK)&lt;br&gt;-Nom_Reg&amp;nbsp;" style="text;strokeColor=none;fillColor=none;align=left;verticalAlign=middle;spacingLeft=4;spacingRight=4;overflow=hidden;points=[[0,0.5],[1,0.5]];portConstraint=eastwest;rotatable=0;whiteSpace=wrap;html=1;" parent="e2rtTpoTJisuI_kt0HKg-90" vertex="1">
          <mxGeometry y="30" width="140" height="50" as="geometry" />
        </mxCell>
        <mxCell id="e2rtTpoTJisuI_kt0HKg-94" value="Pertenece" style="rhombus;whiteSpace=wrap;html=1;fillColor=#fff2cc;gradientColor=#ffd966;strokeColor=#d6b656;" parent="1" vertex="1">
          <mxGeometry x="210" y="490" width="70" height="60" as="geometry" />
        </mxCell>
        <mxCell id="e2rtTpoTJisuI_kt0HKg-95" value="Pertenece" style="rhombus;whiteSpace=wrap;html=1;fillColor=#fff2cc;gradientColor=#ffd966;strokeColor=#d6b656;" parent="1" vertex="1">
          <mxGeometry x="555" y="490" width="70" height="60" as="geometry" />
        </mxCell>
        <mxCell id="e2rtTpoTJisuI_kt0HKg-97" value="Pertenece" style="rhombus;whiteSpace=wrap;html=1;fillColor=#fff2cc;gradientColor=#ffd966;strokeColor=#d6b656;" parent="1" vertex="1">
          <mxGeometry x="930" y="490" width="70" height="60" as="geometry" />
        </mxCell>
        <mxCell id="e2rtTpoTJisuI_kt0HKg-99" value="" style="endArrow=classic;html=1;rounded=0;entryX=0;entryY=0.5;entryDx=0;entryDy=0;exitX=1;exitY=0.25;exitDx=0;exitDy=0;" parent="1" source="e2rtTpoTJisuI_kt0HKg-82" target="e2rtTpoTJisuI_kt0HKg-95" edge="1">
          <mxGeometry width="50" height="50" relative="1" as="geometry">
            <mxPoint x="420" y="540" as="sourcePoint" />
            <mxPoint x="470" y="490" as="targetPoint" />
          </mxGeometry>
        </mxCell>
        <mxCell id="e2rtTpoTJisuI_kt0HKg-100" value="" style="endArrow=classic;html=1;rounded=0;exitX=1;exitY=0.5;exitDx=0;exitDy=0;entryX=0;entryY=0.25;entryDx=0;entryDy=0;" parent="1" source="e2rtTpoTJisuI_kt0HKg-94" target="e2rtTpoTJisuI_kt0HKg-82" edge="1">
          <mxGeometry width="50" height="50" relative="1" as="geometry">
            <mxPoint x="420" y="540" as="sourcePoint" />
            <mxPoint x="470" y="490" as="targetPoint" />
          </mxGeometry>
        </mxCell>
        <mxCell id="e2rtTpoTJisuI_kt0HKg-101" value="" style="endArrow=classic;html=1;rounded=0;entryX=0;entryY=0.5;entryDx=0;entryDy=0;exitX=1.021;exitY=0.125;exitDx=0;exitDy=0;exitPerimeter=0;" parent="1" source="e2rtTpoTJisuI_kt0HKg-78" target="e2rtTpoTJisuI_kt0HKg-94" edge="1">
          <mxGeometry width="50" height="50" relative="1" as="geometry">
            <mxPoint x="200" y="570" as="sourcePoint" />
            <mxPoint x="470" y="490" as="targetPoint" />
          </mxGeometry>
        </mxCell>
        <mxCell id="e2rtTpoTJisuI_kt0HKg-102" value="" style="endArrow=classic;html=1;rounded=0;exitX=1;exitY=0.5;exitDx=0;exitDy=0;" parent="1" source="e2rtTpoTJisuI_kt0HKg-95" edge="1">
          <mxGeometry width="50" height="50" relative="1" as="geometry">
            <mxPoint x="620" y="540" as="sourcePoint" />
            <mxPoint x="718" y="520" as="targetPoint" />
          </mxGeometry>
        </mxCell>
        <mxCell id="e2rtTpoTJisuI_kt0HKg-103" value="" style="endArrow=classic;html=1;rounded=0;exitX=1.014;exitY=0.19;exitDx=0;exitDy=0;exitPerimeter=0;entryX=0;entryY=0.5;entryDx=0;entryDy=0;" parent="1" source="e2rtTpoTJisuI_kt0HKg-86" target="e2rtTpoTJisuI_kt0HKg-97" edge="1">
          <mxGeometry width="50" height="50" relative="1" as="geometry">
            <mxPoint x="900" y="540" as="sourcePoint" />
            <mxPoint x="950" y="490" as="targetPoint" />
          </mxGeometry>
        </mxCell>
        <mxCell id="e2rtTpoTJisuI_kt0HKg-104" value="" style="endArrow=classic;html=1;rounded=0;entryX=0;entryY=0.25;entryDx=0;entryDy=0;exitX=1;exitY=0.5;exitDx=0;exitDy=0;" parent="1" source="e2rtTpoTJisuI_kt0HKg-97" target="e2rtTpoTJisuI_kt0HKg-90" edge="1">
          <mxGeometry width="50" height="50" relative="1" as="geometry">
            <mxPoint x="900" y="540" as="sourcePoint" />
            <mxPoint x="950" y="490" as="targetPoint" />
          </mxGeometry>
        </mxCell>
        <mxCell id="e2rtTpoTJisuI_kt0HKg-105" value="" style="endArrow=none;html=1;rounded=0;entryX=1.009;entryY=0.769;entryDx=0;entryDy=0;entryPerimeter=0;exitX=0;exitY=0.28;exitDx=0;exitDy=0;exitPerimeter=0;" parent="1" source="e2rtTpoTJisuI_kt0HKg-85" target="e2rtTpoTJisuI_kt0HKg-81" edge="1">
          <mxGeometry width="50" height="50" relative="1" as="geometry">
            <mxPoint x="500" y="540" as="sourcePoint" />
            <mxPoint x="550" y="490" as="targetPoint" />
            <Array as="points">
              <mxPoint x="300" y="544" />
              <mxPoint x="300" y="630" />
            </Array>
          </mxGeometry>
        </mxCell>
        <mxCell id="e2rtTpoTJisuI_kt0HKg-106" value="" style="endArrow=none;html=1;rounded=0;exitX=1.018;exitY=0.78;exitDx=0;exitDy=0;exitPerimeter=0;" parent="1" source="e2rtTpoTJisuI_kt0HKg-85" edge="1">
          <mxGeometry width="50" height="50" relative="1" as="geometry">
            <mxPoint x="500" y="540" as="sourcePoint" />
            <mxPoint x="720" y="550" as="targetPoint" />
            <Array as="points">
              <mxPoint x="680" y="569" />
              <mxPoint x="680" y="550" />
            </Array>
          </mxGeometry>
        </mxCell>
        <mxCell id="e2rtTpoTJisuI_kt0HKg-107" value="" style="endArrow=none;html=1;rounded=0;exitX=1.007;exitY=0.757;exitDx=0;exitDy=0;exitPerimeter=0;entryX=0;entryY=0.34;entryDx=0;entryDy=0;entryPerimeter=0;" parent="1" source="e2rtTpoTJisuI_kt0HKg-89" target="e2rtTpoTJisuI_kt0HKg-92" edge="1">
          <mxGeometry width="50" height="50" relative="1" as="geometry">
            <mxPoint x="990" y="540" as="sourcePoint" />
            <mxPoint x="1040" y="490" as="targetPoint" />
            <Array as="points">
              <mxPoint x="1040" y="583" />
              <mxPoint x="1040" y="547" />
            </Array>
          </mxGeometry>
        </mxCell>
        <mxCell id="67kp_mQt7lK-bVq5Nsjj-3" value="&lt;font size=&quot;1&quot;&gt;&lt;b style=&quot;font-size: 20px;&quot;&gt;4)&lt;/b&gt;&lt;/font&gt;" style="text;html=1;strokeColor=none;fillColor=none;align=center;verticalAlign=middle;whiteSpace=wrap;rounded=0;" vertex="1" parent="1">
          <mxGeometry x="2.5" y="730" width="25" height="30" as="geometry" />
        </mxCell>
        <mxCell id="67kp_mQt7lK-bVq5Nsjj-4" value="List" style="swimlane;fontStyle=0;childLayout=stackLayout;horizontal=1;startSize=30;horizontalStack=0;resizeParent=1;resizeParentMax=0;resizeLast=0;collapsible=1;marginBottom=0;whiteSpace=wrap;html=1;" vertex="1" parent="1">
          <mxGeometry x="20" y="760" width="140" height="120" as="geometry" />
        </mxCell>
        <mxCell id="67kp_mQt7lK-bVq5Nsjj-5" value="Item 1" style="text;strokeColor=none;fillColor=none;align=left;verticalAlign=middle;spacingLeft=4;spacingRight=4;overflow=hidden;points=[[0,0.5],[1,0.5]];portConstraint=eastwest;rotatable=0;whiteSpace=wrap;html=1;" vertex="1" parent="67kp_mQt7lK-bVq5Nsjj-4">
          <mxGeometry y="30" width="140" height="30" as="geometry" />
        </mxCell>
        <mxCell id="67kp_mQt7lK-bVq5Nsjj-6" value="Item 2" style="text;strokeColor=none;fillColor=none;align=left;verticalAlign=middle;spacingLeft=4;spacingRight=4;overflow=hidden;points=[[0,0.5],[1,0.5]];portConstraint=eastwest;rotatable=0;whiteSpace=wrap;html=1;" vertex="1" parent="67kp_mQt7lK-bVq5Nsjj-4">
          <mxGeometry y="60" width="140" height="30" as="geometry" />
        </mxCell>
        <mxCell id="67kp_mQt7lK-bVq5Nsjj-7" value="Item 3" style="text;strokeColor=none;fillColor=none;align=left;verticalAlign=middle;spacingLeft=4;spacingRight=4;overflow=hidden;points=[[0,0.5],[1,0.5]];portConstraint=eastwest;rotatable=0;whiteSpace=wrap;html=1;" vertex="1" parent="67kp_mQt7lK-bVq5Nsjj-4">
          <mxGeometry y="90" width="140" height="30" as="geometry" />
        </mxCell>
        <mxCell id="67kp_mQt7lK-bVq5Nsjj-8" value="List" style="swimlane;fontStyle=0;childLayout=stackLayout;horizontal=1;startSize=30;horizontalStack=0;resizeParent=1;resizeParentMax=0;resizeLast=0;collapsible=1;marginBottom=0;whiteSpace=wrap;html=1;" vertex="1" parent="1">
          <mxGeometry x="290" y="930" width="140" height="120" as="geometry" />
        </mxCell>
        <mxCell id="67kp_mQt7lK-bVq5Nsjj-9" value="Item 1" style="text;strokeColor=none;fillColor=none;align=left;verticalAlign=middle;spacingLeft=4;spacingRight=4;overflow=hidden;points=[[0,0.5],[1,0.5]];portConstraint=eastwest;rotatable=0;whiteSpace=wrap;html=1;" vertex="1" parent="67kp_mQt7lK-bVq5Nsjj-8">
          <mxGeometry y="30" width="140" height="30" as="geometry" />
        </mxCell>
        <mxCell id="67kp_mQt7lK-bVq5Nsjj-10" value="Item 2" style="text;strokeColor=none;fillColor=none;align=left;verticalAlign=middle;spacingLeft=4;spacingRight=4;overflow=hidden;points=[[0,0.5],[1,0.5]];portConstraint=eastwest;rotatable=0;whiteSpace=wrap;html=1;" vertex="1" parent="67kp_mQt7lK-bVq5Nsjj-8">
          <mxGeometry y="60" width="140" height="30" as="geometry" />
        </mxCell>
        <mxCell id="67kp_mQt7lK-bVq5Nsjj-11" value="Item 3" style="text;strokeColor=none;fillColor=none;align=left;verticalAlign=middle;spacingLeft=4;spacingRight=4;overflow=hidden;points=[[0,0.5],[1,0.5]];portConstraint=eastwest;rotatable=0;whiteSpace=wrap;html=1;" vertex="1" parent="67kp_mQt7lK-bVq5Nsjj-8">
          <mxGeometry y="90" width="140" height="30" as="geometry" />
        </mxCell>
        <mxCell id="67kp_mQt7lK-bVq5Nsjj-12" value="List" style="swimlane;fontStyle=0;childLayout=stackLayout;horizontal=1;startSize=30;horizontalStack=0;resizeParent=1;resizeParentMax=0;resizeLast=0;collapsible=1;marginBottom=0;whiteSpace=wrap;html=1;" vertex="1" parent="1">
          <mxGeometry x="550" y="760" width="140" height="120" as="geometry" />
        </mxCell>
        <mxCell id="67kp_mQt7lK-bVq5Nsjj-13" value="Item 1" style="text;strokeColor=none;fillColor=none;align=left;verticalAlign=middle;spacingLeft=4;spacingRight=4;overflow=hidden;points=[[0,0.5],[1,0.5]];portConstraint=eastwest;rotatable=0;whiteSpace=wrap;html=1;" vertex="1" parent="67kp_mQt7lK-bVq5Nsjj-12">
          <mxGeometry y="30" width="140" height="30" as="geometry" />
        </mxCell>
        <mxCell id="67kp_mQt7lK-bVq5Nsjj-14" value="Item 2" style="text;strokeColor=none;fillColor=none;align=left;verticalAlign=middle;spacingLeft=4;spacingRight=4;overflow=hidden;points=[[0,0.5],[1,0.5]];portConstraint=eastwest;rotatable=0;whiteSpace=wrap;html=1;" vertex="1" parent="67kp_mQt7lK-bVq5Nsjj-12">
          <mxGeometry y="60" width="140" height="30" as="geometry" />
        </mxCell>
        <mxCell id="67kp_mQt7lK-bVq5Nsjj-15" value="Item 3" style="text;strokeColor=none;fillColor=none;align=left;verticalAlign=middle;spacingLeft=4;spacingRight=4;overflow=hidden;points=[[0,0.5],[1,0.5]];portConstraint=eastwest;rotatable=0;whiteSpace=wrap;html=1;" vertex="1" parent="67kp_mQt7lK-bVq5Nsjj-12">
          <mxGeometry y="90" width="140" height="30" as="geometry" />
        </mxCell>
        <mxCell id="67kp_mQt7lK-bVq5Nsjj-16" value="List" style="swimlane;fontStyle=0;childLayout=stackLayout;horizontal=1;startSize=30;horizontalStack=0;resizeParent=1;resizeParentMax=0;resizeLast=0;collapsible=1;marginBottom=0;whiteSpace=wrap;html=1;" vertex="1" parent="1">
          <mxGeometry x="280" y="760" width="140" height="120" as="geometry" />
        </mxCell>
        <mxCell id="67kp_mQt7lK-bVq5Nsjj-17" value="Item 1" style="text;strokeColor=none;fillColor=none;align=left;verticalAlign=middle;spacingLeft=4;spacingRight=4;overflow=hidden;points=[[0,0.5],[1,0.5]];portConstraint=eastwest;rotatable=0;whiteSpace=wrap;html=1;" vertex="1" parent="67kp_mQt7lK-bVq5Nsjj-16">
          <mxGeometry y="30" width="140" height="30" as="geometry" />
        </mxCell>
        <mxCell id="67kp_mQt7lK-bVq5Nsjj-18" value="Item 2" style="text;strokeColor=none;fillColor=none;align=left;verticalAlign=middle;spacingLeft=4;spacingRight=4;overflow=hidden;points=[[0,0.5],[1,0.5]];portConstraint=eastwest;rotatable=0;whiteSpace=wrap;html=1;" vertex="1" parent="67kp_mQt7lK-bVq5Nsjj-16">
          <mxGeometry y="60" width="140" height="30" as="geometry" />
        </mxCell>
        <mxCell id="67kp_mQt7lK-bVq5Nsjj-19" value="Item 3" style="text;strokeColor=none;fillColor=none;align=left;verticalAlign=middle;spacingLeft=4;spacingRight=4;overflow=hidden;points=[[0,0.5],[1,0.5]];portConstraint=eastwest;rotatable=0;whiteSpace=wrap;html=1;" vertex="1" parent="67kp_mQt7lK-bVq5Nsjj-16">
          <mxGeometry y="90" width="140" height="30" as="geometry" />
        </mxCell>
      </root>
    </mxGraphModel>
  </diagram>
</mxfile>
